# xmcd
#
# Track frame offsets: 
#        150
#        12145
#        26914
#        41807
#        54614
#        68362
#        82911
#        95439
#        109514
#        124037
#        135460
#        146137
#        159903
#        173044
#        185279
#        196382
#        207850
#        220413
#        233471
#        246206
#        258468
#        270530
#        283059
#        294475
#        304199
#        313110
#        322651
#        333998
#
# Disc length: 4601 seconds
#
# Revision: 1
# Processed by: cddbd v1.5.2PL0 Copyright (c) Steve Scherf et al.
# Submitted via: ExactAudioCopy v0.95b2
#
DISCID=8a11f71c
DTITLE=Don Gibson - Don Gibson - Autograph Collection CD1
DYEAR=1996
DGENRE=Country
TTITLE0=Oh Lonessome me
TTITLE1=I can't stop loving you
TTITLE2=Woman (Sensuous Woman)
TTITLE3=Snap your fingers
TTITLE4=Release me
TTITLE5=Gentle on my mind
TTITLE6=Cold, cold heart
TTITLE7=Touch the morning
TTITLE8=She even woke me up to say Good-bye
TTITLE9=Fan the flame, feed the fire
TTITLE10=Far far awy
TTITLE11=All I have to offer you is me
TTITLE12=Starting all over again
TTITLE13=I'm all wrapped up in you
TTITLE14=Who cares
TTITLE15=One day at a time
TTITLE16=Househusband Blues
TTITLE17=If you ever get to Houston (Look me down)
TTITLE18=Too soon to know
TTITLE19=Bring back your love to me
TTITLE20=My heart would know
TTITLE21=Kaw-Liga
TTITLE22=(I'd be) a legend in my time
TTITLE23=The fool
TTITLE24=Blue, blue day
TTITLE25=Take these Chains from my heart
TTITLE26=The hurt goes on
TTITLE27=Sweet sensuous sensations
EXTD=
EXTT0=
EXTT1=
EXTT2=
EXTT3=
EXTT4=
EXTT5=
EXTT6=
EXTT7=
EXTT8=
EXTT9=
EXTT10=
EXTT11=
EXTT12=
EXTT13=
EXTT14=
EXTT15=
EXTT16=
EXTT17=
EXTT18=
EXTT19=
EXTT20=
EXTT21=
EXTT22=
EXTT23=
EXTT24=
EXTT25=
EXTT26=
EXTT27=
PLAYORDER=
